<svg version="1.1" xmlns="http://www.w3.org/2000/svg" xmlns:xlink="http://www.w3.org/1999/xlink" x="0px" y="0px"
	 width="22px" height="22px" viewBox="0 0 64 65" enable-background="new 0 0 64 65" xml:space="preserve"><path fill="#FFF" d="M32,5.474c-14.912,0-27.001,12.089-27.001,27.002c0,12.829,8.95,23.56,20.943,26.311
				c0.136-2.499,0.255-1.733,0.353-5.692c0.13-5.254,0.327-12.433,0.589-16.134h-1.77c-1.047,0-4.089-0.198-4.647-0.591
				c-0.555-0.399-0.851-0.829-0.885-1.29c-0.033-0.464,0.214-0.893,0.737-1.291c0.525-0.395,3.616-0.594,4.795-0.594h2.163
				c0.524-4.624,1.41-7.831,2.654-9.615c1.245-1.784,3.18-2.775,5.802-2.974c1.114-0.063,2.08,0.134,2.9,0.595
				c0.819,0.463,1.476,1.075,1.967,1.834c0.492,0.76,0.818,1.586,0.983,2.479c0.162,0.892,0.179,1.735,0.049,2.527
				c-0.132,0.927-0.54,1.67-1.229,2.23c-0.688,0.561-1.41,0.927-2.162,1.092c-0.755,0.164-1.394,0.146-1.917-0.052
				c-0.525-0.197-0.724-0.594-0.591-1.189c0.524-2.179,0.836-3.782,0.934-4.806c0.1-1.025-0.213-1.537-0.934-1.537
				c-0.591,0-1.064,0.678-1.427,2.033c-0.36,1.355-0.605,3.715-0.736,7.087c0.655-0.066,1.262-0.099,1.818-0.099s1.098,0,1.624,0
				c1.243,0,2.163,0.214,2.752,0.644c0.59,0.429,0.885,0.891,0.885,1.387c0,0.497-0.279,0.944-0.835,1.34
				c-0.56,0.396-1.362,0.593-2.409,0.593c-0.525,0-1.131,0-1.82,0c-0.687,0-1.425,0.036-2.211,0.1
				c-0.132,3.305-0.182,10.038-0.148,14.794c0.025,3.643,0.06,4.586,0.104,7.787c14.294-0.693,25.671-12.501,25.671-26.967
				C59.002,17.562,46.912,5.474,32,5.474z"/></svg>
